<?xml version="1.0" encoding="utf-8"?>
<!-- Generator: Adobe Illustrator 19.1.0, SVG Export Plug-In . SVG Version: 6.00 Build 0)  -->
<svg version="1.1" id="Layer_1" xmlns="http://www.w3.org/2000/svg" xmlns:xlink="http://www.w3.org/1999/xlink" x="0px" y="0px"
	 viewBox="0 0 2000 2000" style="enable-background:new 0 0 2000 2000;" xml:space="preserve">
<style type="text/css">
	.st0{fill:#C49F56;}
	.st1{fill:#AA8646;}
	.st2{fill:#54575B;}
</style>
<g>
	<g>
		<g>
			<polyline class="st0" points="1173.9,1289.6 1318.5,922.7 1138.2,1124.5 1173.9,1289.6 			"/>
			<polyline class="st0" points="932.2,1340.9 962.3,1092.6 878.9,1126.8 932.2,1340.9 			"/>
			<polygon class="st0" points="681.5,922.7 826.1,1289.6 861.8,1124.5 			"/>
			<polyline class="st0" points="971.7,1067.4 992.5,1038.4 992.5,809.5 867.5,904.8 971.7,1067.4 			"/>
			<polygon class="st0" points="1077.1,1366 1163.3,1311.9 1129.5,1155.5 			"/>
			<polyline class="st0" points="1330.8,879.6 1284.9,739.9 1159.5,894 1330.8,879.6 			"/>
			<polyline class="st0" points="1123.1,1111.3 1133.4,931.2 1039.9,1077.3 1123.1,1111.3 			"/>
			<polygon class="st0" points="1135,694.3 1012.2,794.1 1135,887.8 			"/>
			<polygon class="st0" points="850.3,910 677.3,895.4 861.3,1101.2 			"/>
			<polygon class="st0" points="725.1,728.3 848.6,880.2 848.6,880.2 849.9,881.8 849.9,877.3 849.9,855.6 849.9,688.8 			"/>
		</g>
		<g>
			<polyline class="st1" points="870.5,1155.5 836.7,1311.9 922.9,1366 870.5,1155.5 			"/>
			<polyline class="st1" points="715.1,739.9 669.2,879.6 840.5,894 715.1,739.9 			"/>
			<polyline class="st1" points="1037.7,1092.6 1067.8,1340.9 1121.2,1126.8 1037.7,1092.6 			"/>
			<polyline class="st1" points="1007.5,809.5 1007.5,1038.4 1028.3,1067.4 1132.5,904.8 1007.5,809.5 			"/>
			<polyline class="st1" points="1322.8,895.4 1149.7,910 1138.8,1101.2 1322.8,895.4 			"/>
			<polyline class="st1" points="866.6,931.2 876.9,1111.3 960.1,1077.3 866.6,931.2 			"/>
			<polyline class="st1" points="865,694.3 865,887.8 987.8,794.1 865,694.3 			"/>
			<polyline class="st1" points="1150.1,688.8 1150.1,855.6 1150.1,877.3 1150.1,881.8 1151.4,880.2 1151.4,880.2 1274.9,728.3 
				1150.1,688.8 			"/>
		</g>
	</g>
	<g>
		<g>
			<path class="st2" d="M471.9,515.4l13.2-12.7l57.3,19.6l-17.6-57.8l13.2-12.7l57.9,60.2l-10.6,10.2l-41.6-43.2l16.9,55l-7.4,7.1
				l-54.4-18.8l41.6,43.2l-10.5,10.1L471.9,515.4z"/>
			<path class="st2" d="M663.6,372.9c7.8-0.2,15,1.6,21.6,5.3c6.6,3.7,12,9,16,15.9s5.9,14.1,5.9,21.8c-0.1,7.6-2.1,14.8-6.1,21.5
				c-4,6.7-9.5,12.1-16.7,16.3c-7.2,4.1-14.6,6.3-22.4,6.4c-7.8,0.1-15-1.7-21.7-5.4c-6.7-3.7-12-9-16-15.9
				c-4-6.9-5.9-14.1-5.8-21.7c0.1-7.6,2.2-14.7,6.2-21.4c4-6.6,9.6-12,16.8-16.2C648.4,375.2,655.9,373.1,663.6,372.9z M638.2,402
				c-2.5,4.4-3.8,9.1-3.8,14.1c0,5,1.3,9.8,3.9,14.4c2.6,4.5,6.2,8.1,10.6,10.5c4.4,2.5,9.2,3.7,14.2,3.8c5,0,9.7-1.2,14.2-3.8
				c4.3-2.5,7.7-5.9,10.2-10.3c2.4-4.4,3.6-9.1,3.6-14.1c0-5-1.4-9.8-4-14.4c-2.6-4.5-6.1-8.1-10.5-10.5s-9-3.7-14-3.8
				c-5,0-9.6,1.2-14,3.8C644.2,394.2,640.8,397.7,638.2,402z"/>
			<path class="st2" d="M810.7,309.2l14.8-4.5l24.5,79.9l-14.5,4.4l-57.9-42.4l16.8,55l-14.9,4.6L755,326.3l14.5-4.4l58.1,42.5
				L810.7,309.2z"/>
			<path class="st2" d="M968.6,289.8c6.8,3,12.4,7.6,16.6,13.7c4.2,6.1,6.6,13.1,7.2,21.1c0.6,8-0.8,15.3-4.1,21.9
				c-3.3,6.6-8.2,11.9-14.5,16c-6.4,4.1-13.8,6.4-22.3,7l-34,2.5l-6.2-83.3l34.6-2.6C954.1,285.6,961.7,286.8,968.6,289.8z
				 M964.8,350.9c3.9-2.6,6.9-6.1,8.9-10.5c2-4.3,2.8-9.2,2.4-14.5c-0.4-5.3-1.9-10-4.6-14.1c-2.7-4.1-6.2-7.1-10.5-9.1
				c-4.3-2-9.1-2.9-14.2-2.5l-18.4,1.4l4.1,55.2l19-1.4C956.4,355.1,960.9,353.5,964.8,350.9z"/>
			<path class="st2" d="M1064.5,286.2l68.6,9.5l-1.5,11.1l-56.7,51.1l49.3,6.8l-1.9,13.8l-70.7-9.8l1.6-11.2l56.7-50.9l-47.3-6.5
				L1064.5,286.2z"/>
			<path class="st2" d="M1267.3,340.4c5.1,5.9,8.3,12.5,9.7,20c1.4,7.5,0.7,14.9-2,22.4c-2.8,7.5-7.1,13.6-13,18.4
				s-12.7,7.8-20.4,9.1s-15.4,0.4-23.2-2.5c-7.8-2.9-14.2-7.3-19.2-13.2c-5.1-5.9-8.3-12.7-9.7-20.2c-1.4-7.5-0.7-15,2-22.5
				c2.8-7.5,7.1-13.6,13-18.3c5.9-4.8,12.7-7.7,20.4-8.9c7.7-1.2,15.4-0.3,23.2,2.6C1255.8,330.1,1262.2,334.5,1267.3,340.4z
				 M1228.6,339.4c-5,0.8-9.4,2.8-13.3,6c-3.9,3.2-6.7,7.2-8.6,12.2s-2.3,9.9-1.4,14.9c0.9,5,3,9.4,6.1,13.3
				c3.2,3.9,7.2,6.7,11.9,8.5c4.7,1.7,9.5,2.2,14.4,1.3c4.9-0.9,9.3-3,13.2-6.2c3.9-3.2,6.7-7.3,8.5-12.2c1.8-4.9,2.3-9.9,1.5-14.8
				c-0.9-4.9-2.9-9.3-6-13.2c-3.2-3.8-7.1-6.6-11.8-8.4C1238.5,339,1233.6,338.6,1228.6,339.4z"/>
			<path class="st2" d="M1359.3,479.5l1.3-28.6c-0.6-0.3-1.4-0.8-2.6-1.5l-15.8-10.3l-13.4,20.6l-13.4-8.7l45.5-70.1l29.2,19
				c9.1,5.9,14.7,12.5,16.9,20c2.2,7.4,0.8,14.9-4.2,22.6c-3.6,5.5-7.8,9.4-12.7,11.7c-4.9,2.3-10.2,3-16,2l0.3,33.2L1359.3,479.5z
				 M1349.9,427.3l15.8,10.3c5.1,3.3,9.7,4.7,13.8,4.2c4.1-0.5,7.6-2.9,10.4-7.2c2.8-4.3,3.5-8.3,2.2-12.2
				c-1.3-3.9-4.5-7.4-9.5-10.7l-15.8-10.3L1349.9,427.3z"/>
			<path class="st2" d="M1493.4,541.7l9.7,10l-22.8,22.1c-5.4-0.9-10.9-2.8-16.5-5.6c-5.6-2.9-10.4-6.4-14.4-10.5
				c-5.7-5.9-9.5-12.6-11.4-20.1c-1.9-7.5-1.9-14.9,0.1-22.3c2-7.4,5.9-13.8,11.6-19.4s12.3-9.1,19.7-10.8s14.9-1.3,22.4,1
				c7.5,2.3,14.2,6.5,20,12.5c4.2,4.3,7.5,9.3,10,14.9c2.5,5.7,3.9,11.3,4.1,16.9l-14.8,1.7c0-4.4-0.9-8.7-2.6-12.8
				c-1.7-4.2-4-7.8-7-10.8c-3.6-3.8-7.9-6.4-12.8-7.8c-4.9-1.4-9.8-1.5-14.7-0.3c-4.9,1.2-9.2,3.6-12.9,7.2
				c-3.8,3.6-6.3,7.9-7.7,12.8c-1.3,4.9-1.4,9.8-0.2,14.7c1.2,4.9,3.7,9.3,7.4,13.1c2,2.1,4.4,3.9,7.3,5.5c2.8,1.6,5.9,2.9,9.1,3.8
				L1493.4,541.7z"/>
		</g>
		<g>
			<g>
				<path class="st2" d="M527.5,1440.1c-1.9-4.3-4.1-7.7-6.4-10.3c-2.6-2.8-5.1-4.6-7.7-5.3c-2.6-0.7-4.8-0.2-6.7,1.5
					c-1.7,1.5-2.6,3.4-2.7,5.6c-0.1,2.2,0.2,4.5,1.1,6.9c0.8,2.4,2.2,5.5,4,9.3c2.5,5.3,4.4,9.9,5.6,13.7c1.2,3.8,1.4,7.7,0.7,11.8
					c-0.7,4.1-3.1,7.9-7,11.5c-3.8,3.4-8,5.4-12.6,5.9c-4.6,0.5-9.3-0.4-14-2.6c-4.7-2.2-9.1-5.7-13.3-10.3
					c-4.4-4.8-7.7-10.4-10.1-16.6c-2.4-6.2-3.6-12.4-3.6-18.6l14.6-4.2c-0.1,5.7,0.8,11.3,2.7,16.7c1.9,5.4,4.3,9.8,7.3,13.1
					c3,3.3,6,5.3,8.9,6.1c3,0.7,5.5,0.1,7.7-1.8c1.8-1.6,2.7-3.5,2.8-5.7c0.1-2.2-0.3-4.5-1.2-6.9c-0.9-2.4-2.3-5.6-4.2-9.4
					c-2.5-5.3-4.4-9.8-5.6-13.6c-1.2-3.7-1.5-7.6-0.8-11.7c0.7-4,3-7.8,6.9-11.3c3.6-3.3,7.6-5.1,12-5.6c4.4-0.5,8.9,0.3,13.6,2.5
					c4.6,2.2,9.1,5.6,13.2,10.2c3.6,4,6.6,8.5,9,13.5c2.4,5,3.9,9.9,4.7,14.8l-14.7,4.6C530.8,1449,529.4,1444.4,527.5,1440.1z"/>
				<path class="st2" d="M598.9,1486.5l12.7,9.7l-42.1,54.8l28.6,21.9l-8.8,11.5l-41.3-31.7L598.9,1486.5z"/>
				<path class="st2" d="M742.2,1580.3c4.5,6.3,7,13.3,7.7,20.9c0.7,7.6-0.8,14.9-4.2,22.1c-3.5,7.2-8.4,12.8-14.8,17
					c-6.4,4.2-13.5,6.5-21.2,7c-7.8,0.5-15.4-1.1-22.8-4.7c-7.4-3.6-13.4-8.6-17.8-15c-4.4-6.4-7-13.4-7.6-21
					c-0.6-7.6,0.8-15,4.3-22.1c3.5-7.2,8.4-12.8,14.8-17c6.4-4.2,13.4-6.4,21.2-6.8c7.8-0.4,15.3,1.2,22.8,4.8
					C731.7,1569,737.7,1573.9,742.2,1580.3z M703.8,1575.5c-5,0.3-9.6,1.9-13.8,4.7c-4.2,2.8-7.4,6.5-9.7,11.3
					c-2.3,4.7-3.2,9.6-2.8,14.7c0.4,5.1,2,9.7,4.8,13.9c2.8,4.2,6.5,7.4,11,9.6c4.5,2.2,9.3,3.1,14.2,2.7c5-0.4,9.6-2,13.7-4.9
					c4.2-2.8,7.4-6.6,9.7-11.3c2.3-4.7,3.3-9.6,2.9-14.6c-0.4-5-1.9-9.6-4.7-13.7c-2.8-4.1-6.4-7.3-10.9-9.5
					C713.7,1576.1,708.9,1575.2,703.8,1575.5z"/>
				<path class="st2" d="M810.5,1601.7l66,16.8l-3.5,13.8l-25.2-6.4l-17.1,67.2l-15.6-4l17.1-67.2l-25.2-6.4L810.5,1601.7z"/>
				<path class="st2" d="M933.9,1626.9l61.1,3.6l-0.8,13.9l-45.2-2.6l-1.2,20.6l40.5,2.4l-0.8,13.9l-40.5-2.4l-1.2,21l46.6,2.7
					l-0.8,13.9l-62.5-3.6L933.9,1626.9z"/>
				<path class="st2" d="M1122.7,1702.9l-17.8-22.4c-0.6,0.2-1.6,0.4-2.9,0.5l-18.7,2.7l3.5,24.3l-15.8,2.3l-12-82.7l34.5-5
					c10.7-1.6,19.3-0.3,25.9,3.8c6.5,4.1,10.5,10.7,11.8,19.7c0.9,6.5,0.3,12.2-1.8,17.1c-2.1,5-5.7,9-10.7,12.1l22.2,24.7
					L1122.7,1702.9z M1081.3,1669.9l18.7-2.7c6-0.9,10.4-2.8,13.1-5.9c2.8-3.1,3.8-7.1,3-12.3c-0.7-5-2.9-8.6-6.4-10.6
					c-3.5-2.1-8.3-2.7-14.2-1.8l-18.7,2.7L1081.3,1669.9z"/>
				<path class="st2" d="M1281.2,1565.8l15.4-6.2l5.1,88l-15.4,6.2l-41.5-51.6l5.7,66l-15.2,6.1l-57.4-66.9l15.9-6.4l43.1,54
					l-6.7-68.7l14.6-5.9l43.2,54.2L1281.2,1565.8z"/>
				<path class="st2" d="M1343.6,1529l49.7-35.7l8.1,11.3l-36.8,26.4l12,16.8l33-23.6l8.1,11.3l-33,23.6l12.2,17.1l37.9-27.2
					l8.1,11.3l-50.9,36.5L1343.6,1529z"/>
				<path class="st2" d="M1510.7,1437.9l9.5-10.3l23.3,21.5c-0.6,5.4-2.1,11-4.7,16.8c-2.6,5.8-5.8,10.7-9.7,15
					c-5.6,6-12,10.2-19.4,12.6c-7.4,2.4-14.8,2.7-22.2,1.2c-7.5-1.6-14.1-5.1-20-10.5c-5.9-5.4-9.8-11.7-11.9-19.1
					c-2.1-7.3-2.2-14.8-0.3-22.4c1.9-7.6,5.7-14.5,11.3-20.6c4-4.4,8.8-8,14.3-10.8c5.5-2.8,11.1-4.5,16.7-5.1l2.5,14.7
					c-4.4,0.3-8.6,1.4-12.7,3.3c-4.1,1.9-7.5,4.5-10.4,7.6c-3.6,3.9-5.9,8.3-7.1,13.2c-1.1,4.9-1,9.8,0.5,14.7
					c1.5,4.8,4.1,9,7.9,12.5c3.9,3.6,8.3,5.9,13.2,6.9c5,1.1,9.9,0.8,14.7-0.6c4.8-1.5,9.1-4.2,12.7-8.1c1.9-2.1,3.6-4.6,5.1-7.6
					c1.5-2.9,2.5-6,3.3-9.3L1510.7,1437.9z"/>
			</g>
		</g>
		<g>
			<path class="st2" d="M1533.3,581.2l-11.1,8.7c88.2,112.6,140.7,254.3,140.7,408.4c0,140-43.4,269.7-117.4,376.7l11.6,8
				c75.6-109.2,119.9-241.8,119.9-384.7C1677,841,1623.3,696.1,1533.3,581.2z"/>
			<polygon class="st2" points="1557.1,1383.1 1557.1,1383.1 1557.1,1383.1 			"/>
			<path class="st2" d="M466.7,581.2L466.7,581.2C376.7,696.1,323,841,323,998.3c0,142.9,44.3,275.5,119.9,384.7l11.6-8
				c-74-107-117.4-236.7-117.4-376.7c0-154.1,52.6-295.8,140.7-408.4L466.7,581.2z"/>
		</g>
	</g>
</g>
</svg>
